<?xml version="1.0" encoding="utf-8"?>
<!-- Generator: Adobe Illustrator 22.0.1, SVG Export Plug-In . SVG Version: 6.00 Build 0)  -->
<svg version="1.1" id="Layer_1" xmlns="http://www.w3.org/2000/svg" xmlns:xlink="http://www.w3.org/1999/xlink" x="0px" y="0px"
	 viewBox="0 0 1147 488" style="enable-background:new 0 0 1147 488;" xml:space="preserve">
<style type="text/css">
	.st0{fill:#F8AD94;}
	.st1{fill:#F67A83;}
	.st2{fill:#D16E83;}
	.st3{fill:#966480;}
	.st4{fill:#355C7D;}
	.st5{fill:#7C7C7C;}
	.st6{fill:#717275;}
</style>
<g>
	<rect x="22.8" y="42.9" class="st0" width="22.5" height="402.8"/>
	<rect x="45.3" y="271.8" class="st1" width="22.5" height="173.8"/>
	<rect x="117.9" y="154.6" class="st1" width="22.5" height="291"/>
	<rect x="140.4" y="335.6" class="st2" width="22.6" height="110"/>
	<rect x="988.2" y="69.1" class="st0" width="22.6" height="376.5"/>
	<rect x="1010.6" y="271.8" class="st1" width="22.5" height="173.8"/>
	<rect x="1083.2" y="167.5" class="st1" width="22.5" height="278.1"/>
	<rect x="1105.8" y="335.6" class="st0" width="22.5" height="110"/>
	<rect x="213" y="125.6" class="st2" width="22.5" height="320"/>
	<rect x="235.5" y="355" class="st3" width="22.6" height="90.6"/>
	<rect x="308.1" y="240.8" class="st3" width="22.5" height="204.8"/>
	<rect x="330.6" y="278.7" class="st4" width="22.6" height="166.9"/>
	<rect x="403.1" y="125.6" class="st4" width="22.6" height="320"/>
	<rect x="425.7" y="354.6" class="st0" width="22.5" height="91"/>
	<rect x="509.3" y="187.7" class="st0" width="22.5" height="257.9"/>
	<rect x="531.9" y="271.8" class="st1" width="22.5" height="173.8"/>
	<rect x="604.4" y="154.6" class="st1" width="22.6" height="291"/>
	<rect x="626.9" y="222.6" class="st2" width="22.5" height="223"/>
	<rect x="699.4" y="27.9" class="st2" width="22.5" height="417.7"/>
	<rect x="794.6" y="14.8" class="st3" width="22.5" height="430.8"/>
	<rect x="817" y="154.6" class="st4" width="22.6" height="291"/>
	<rect x="722" y="196.7" class="st3" width="22.5" height="249"/>
	<rect x="889.7" y="199" class="st4" width="22.5" height="246.6"/>
	<rect x="912.2" y="213.9" class="st0" width="22.5" height="231.7"/>
	<g>
		<rect x="22.8" y="444.3" class="st5" width="1105.4" height="2.6"/>
	</g>
	<g>
		<path class="st6" d="M32.9,454h1.9v10c0,4-1.9,5.2-4.5,5.2c-0.7,0-1.6-0.2-2.1-0.4l0.3-1.6c0.4,0.2,1,0.3,1.6,0.3
			c1.7,0,2.7-0.8,2.7-3.7V454H32.9z"/>
		<path class="st6" d="M45.5,466.3c0,0.9,0,1.8,0.2,2.6H44l-0.2-1.4h-0.1c-0.6,0.9-1.8,1.6-3.3,1.6c-2.2,0-3.3-1.5-3.3-3.1
			c0-2.6,2.3-4,6.4-4v-0.2c0-0.9-0.2-2.5-2.4-2.4c-1,0-2.1,0.3-2.8,0.8l-0.4-1.3c0.9-0.6,2.2-0.9,3.5-0.9c3.3,0,4.1,2.2,4.1,4.4
			C45.5,462.4,45.5,466.3,45.5,466.3z M43.7,463.4c-2.1,0-4.5,0.3-4.5,2.4c0,1.3,0.8,1.9,1.8,1.9c1.4,0,2.3-0.9,2.6-1.8
			c0.1-0.2,0.1-0.4,0.1-0.6C43.7,465.3,43.7,463.4,43.7,463.4z"/>
		<path class="st6" d="M48.7,461.1c0-1.1,0-2-0.1-2.9h1.7l0.1,1.8l0,0c0.5-1,1.8-2,3.5-2c1.5,0,3.8,0.9,3.8,4.6v6.4h-1.9v-6.2
			c0-1.7-0.6-3.2-2.5-3.2c-1.2,0-2.3,0.9-2.6,2c-0.1,0.2-0.1,0.6-0.1,0.9v6.4h-1.9V461.1z"/>
	</g>
	<g>
		<path class="st6" d="M126.9,454h8v1.6h-6.1v5h5.6v1.6h-5.6v6.7h-1.9V454z"/>
		<path class="st6" d="M138.1,463.9c0,2.6,1.7,3.7,3.7,3.7c1.4,0,2.3-0.2,3-0.5l0.4,1.4c-0.7,0.3-1.9,0.7-3.6,0.7
			c-3.3,0-5.3-2.2-5.3-5.4c0-3.2,1.9-5.7,5-5.7c3.5,0,4.4,3,4.4,5c0,0.4,0,0.7-0.1,0.9h-7.5V463.9z M143.8,462.5
			c0-1.2-0.5-3.2-2.7-3.2c-2,0-2.8,1.8-3,3.2H143.8z"/>
		<path class="st6" d="M148.1,453.2h1.9v6.7l0,0c0.7-1.2,1.9-1.9,3.7-1.9c2.7,0,4.5,2.2,4.5,5.4c0,3.8-2.4,5.7-4.8,5.7
			c-1.5,0-2.8-0.6-3.6-2l0,0l-0.1,1.7H148c0.1-0.7,0.1-1.8,0.1-2.8V453.2z M150,464.6c0,0.2,0,0.5,0.1,0.7c0.4,1.4,1.5,2.3,2.9,2.3
			c2.1,0,3.3-1.7,3.3-4.1c0-2.1-1.1-4-3.2-4c-1.3,0-2.5,0.9-2.9,2.4c-0.1,0.3-0.1,0.5-0.1,0.8v1.9H150z"/>
	</g>
	<g>
		<path class="st6" d="M231.6,462.3c-0.1-2.1-0.2-4.6-0.2-6.4l0,0c-0.5,1.7-1.1,3.6-1.9,5.7l-2.6,7.2h-1.5l-2.4-7.1
			c-0.7-2.1-1.3-4-1.7-5.8l0,0c0,1.9-0.2,4.3-0.3,6.6l-0.4,6.4h-1.8l1-14.9h2.5l2.5,7.2c0.6,1.9,1.1,3.5,1.5,5l0,0
			c0.4-1.5,0.9-3.1,1.6-5l2.6-7.2h2.5l0.9,14.9H232L231.6,462.3z"/>
		<path class="st6" d="M244.4,466.3c0,0.9,0,1.8,0.2,2.6h-1.8l-0.1-1.4h-0.1c-0.6,0.9-1.7,1.6-3.3,1.6c-2.2,0-3.3-1.5-3.3-3.1
			c0-2.6,2.3-4,6.4-4v-0.2c0-0.9-0.2-2.5-2.4-2.4c-1,0-2.1,0.3-2.8,0.8l-0.4-1.3c0.9-0.6,2.2-0.9,3.5-0.9c3.3,0,4.1,2.2,4.1,4.4
			L244.4,466.3L244.4,466.3z M242.6,463.4c-2.1,0-4.5,0.3-4.5,2.4c0,1.3,0.8,1.9,1.8,1.9c1.4,0,2.3-0.9,2.6-1.8
			c0.1-0.2,0.1-0.4,0.1-0.6L242.6,463.4L242.6,463.4z"/>
		<path class="st6" d="M247.6,461.5c0-1.3,0-2.3-0.1-3.3h1.7l0.1,2.1h0.1c0.5-1.4,1.7-2.3,3-2.3c0.2,0,0.4,0,0.5,0v1.8
			c-0.2-0.1-0.4-0.1-0.7-0.1c-1.4,0-2.3,1-2.6,2.5c0,0.3-0.1,0.6-0.1,0.9v5.7h-1.9V461.5z"/>
	</g>
	<g>
		<path class="st6" d="M321.7,464.2l-1.5,4.7h-2l5.1-14.9h2.3l5.1,14.9h-2.1l-1.6-4.7H321.7z M326.6,462.7l-1.5-4.3
			c-0.3-1-0.5-1.9-0.8-2.7h-0.1c-0.2,0.9-0.5,1.8-0.7,2.7l-1.5,4.3H326.6z"/>
		<path class="st6" d="M332.7,461.7c0-1.4,0-2.5-0.1-3.5h1.7l0.1,1.8l0,0c0.8-1.3,2.1-2,3.8-2c2.6,0,4.6,2.2,4.6,5.4
			c0,3.8-2.4,5.7-4.9,5.7c-1.4,0-2.6-0.6-3.3-1.7l0,0v5.8h-1.9V461.7z M334.6,464.5c0,0.3,0,0.5,0.1,0.8c0.4,1.4,1.5,2.3,2.9,2.3
			c2.1,0,3.3-1.7,3.3-4.1c0-2.1-1.1-3.9-3.2-3.9c-1.3,0-2.6,0.9-2.9,2.4c-0.1,0.2-0.1,0.5-0.1,0.8L334.6,464.5L334.6,464.5z"/>
		<path class="st6" d="M345.2,461.5c0-1.3,0-2.3-0.1-3.3h1.7l0.1,2.1h0.1c0.5-1.4,1.7-2.3,3-2.3c0.2,0,0.4,0,0.5,0v1.8
			c-0.2-0.1-0.4-0.1-0.7-0.1c-1.4,0-2.3,1-2.6,2.5c0,0.3-0.1,0.6-0.1,0.9v5.7h-2v-7.3H345.2z"/>
	</g>
	<g>
		<path class="st6" d="M421.3,462.3c-0.1-2.1-0.2-4.6-0.2-6.4l0,0c-0.5,1.7-1.1,3.6-1.9,5.7l-2.6,7.2h-1.5l-2.4-7.1
			c-0.7-2.1-1.3-4-1.7-5.8h-0.1c0,1.9-0.1,4.3-0.3,6.6l-0.4,6.4h-1.8l1-14.9h2.5l2.5,7.2c0.6,1.9,1.1,3.5,1.5,5l0,0
			c0.4-1.5,0.9-3.1,1.6-5l2.7-7.2h2.4l0.9,14.9h-1.9L421.3,462.3z"/>
		<path class="st6" d="M434.1,466.3c0,0.9,0,1.8,0.2,2.6h-1.7l-0.2-1.4h-0.1c-0.6,0.9-1.7,1.6-3.3,1.6c-2.2,0-3.3-1.5-3.3-3.1
			c0-2.6,2.3-4,6.4-4v-0.2c0-0.9-0.2-2.5-2.4-2.4c-1,0-2.1,0.3-2.8,0.8l-0.4-1.3c0.9-0.6,2.2-0.9,3.5-0.9c3.3,0,4.1,2.2,4.1,4.4
			L434.1,466.3L434.1,466.3z M432.3,463.4c-2.1,0-4.5,0.3-4.5,2.4c0,1.3,0.8,1.9,1.8,1.9c1.4,0,2.3-0.9,2.6-1.8
			c0.1-0.2,0.1-0.4,0.1-0.6V463.4z"/>
		<path class="st6" d="M437.8,458.2l2.3,6.3c0.3,0.7,0.5,1.5,0.7,2.2l0,0c0.2-0.6,0.4-1.5,0.7-2.2l2.1-6.3h2.1l-2.9,7.6
			c-1.4,3.7-2.3,5.5-3.7,6.7c-1,0.8-1.9,1.2-2.4,1.3l-0.5-1.6c0.5-0.2,1.1-0.5,1.7-0.9c0.5-0.4,1.2-1.2,1.6-2.2
			c0.1-0.2,0.2-0.3,0.2-0.5c0-0.1,0-0.3-0.2-0.5l-3.9-9.9H437.8z"/>
	</g>
	<g>
		<path class="st6" d="M520,454h1.9v10c0,4-1.9,5.2-4.5,5.2c-0.7,0-1.6-0.2-2.1-0.4l0.3-1.6c0.4,0.2,1,0.3,1.6,0.3
			c1.7,0,2.7-0.8,2.7-3.7L520,454L520,454z"/>
		<path class="st6" d="M534,465.9c0,1.1,0,2.1,0.1,2.9h-1.7l-0.1-1.7l0,0c-0.5,0.9-1.6,2-3.5,2c-1.7,0-3.7-0.9-3.7-4.7v-6.3h1.9v5.9
			c0,2,0.7,3.4,2.4,3.4c1.3,0,2.2-0.9,2.6-1.8c0.1-0.3,0.2-0.6,0.2-1v-6.5h1.9L534,465.9L534,465.9z"/>
		<path class="st6" d="M537.2,461.1c0-1.1,0-2-0.1-2.9h1.7l0.1,1.8l0,0c0.5-1,1.8-2,3.5-2c1.5,0,3.8,0.9,3.8,4.6v6.4h-1.9v-6.2
			c0-1.7-0.6-3.2-2.5-3.2c-1.3,0-2.3,0.9-2.6,2c-0.1,0.2-0.1,0.6-0.1,0.9v6.4h-1.9V461.1z"/>
	</g>
	<g>
		<path class="st6" d="M617.3,454h1.9v10c0,4-1.9,5.2-4.5,5.2c-0.7,0-1.6-0.2-2.1-0.4l0.3-1.6c0.4,0.2,1,0.3,1.6,0.3
			c1.7,0,2.7-0.8,2.7-3.7V454H617.3z"/>
		<path class="st6" d="M631.3,465.9c0,1.1,0,2.1,0.1,2.9h-1.7l-0.1-1.7l0,0c-0.5,0.9-1.6,2-3.5,2c-1.7,0-3.7-0.9-3.7-4.7v-6.3h1.9
			v5.9c0,2,0.6,3.4,2.4,3.4c1.3,0,2.2-0.9,2.6-1.8c0.1-0.3,0.2-0.6,0.2-1v-6.5h1.9L631.3,465.9L631.3,465.9z"/>
		<path class="st6" d="M634.6,453.2h1.9v15.7h-1.9V453.2z"/>
	</g>
	<g>
		<path class="st6" d="M708.3,464.2l-1.5,4.7h-2l5.1-14.9h2.3l5.1,14.9h-2.1l-1.6-4.7H708.3z M713.2,462.7l-1.5-4.3
			c-0.3-1-0.5-1.9-0.8-2.7l0,0c-0.2,0.9-0.4,1.8-0.7,2.7l-1.5,4.3H713.2z"/>
		<path class="st6" d="M728.1,465.9c0,1.1,0,2.1,0.1,2.9h-1.7l-0.1-1.7l0,0c-0.5,0.9-1.6,2-3.5,2c-1.7,0-3.7-0.9-3.7-4.7v-6.3h1.9
			v5.9c0,2,0.6,3.4,2.4,3.4c1.3,0,2.2-0.9,2.6-1.8c0.1-0.3,0.2-0.6,0.2-1v-6.5h1.9v7.8H728.1z"/>
		<path class="st6" d="M740.4,467.3c0,2.5-0.5,4-1.5,4.9c-1.1,0.9-2.5,1.3-3.9,1.3c-1.3,0-2.7-0.3-3.6-0.9l0.5-1.5
			c0.7,0.5,1.8,0.9,3.1,0.9c2,0,3.4-1,3.4-3.7v-1.2l0,0c-0.6,1-1.7,1.8-3.4,1.8c-2.7,0-4.6-2.3-4.6-5.2c0-3.6,2.4-5.7,4.8-5.7
			c1.9,0,2.9,0.9,3.3,1.8l0,0l0.1-1.6h1.7c-0.1,0.8-0.1,1.6-0.1,2.9v6.2H740.4z M738.5,462.4c0-0.3,0-0.6-0.1-0.9
			c-0.4-1.1-1.3-2.1-2.7-2.1c-1.9,0-3.2,1.6-3.2,4.1c0,2.1,1.1,3.8,3.2,3.8c1.2,0,2.3-0.7,2.7-2c0.1-0.3,0.2-0.7,0.2-1v-1.9H738.5z"
			/>
	</g>
	<g>
		<path class="st6" d="M803.6,466.5c0.9,0.6,2.1,1,3.4,1c2,0,3.1-1,3.1-2.5c0-1.4-0.8-2.2-2.8-2.9c-2.4-0.9-3.9-2.2-3.9-4.3
			c0-2.3,1.9-4,4.8-4c1.5,0,2.6,0.3,3.3,0.7L811,456c-0.5-0.3-1.5-0.7-2.8-0.7c-2,0-2.8,1.2-2.8,2.2c0,1.4,0.9,2.1,3,2.9
			c2.5,1,3.8,2.2,3.8,4.4c0,2.3-1.7,4.3-5.2,4.3c-1.4,0-3-0.4-3.8-1L803.6,466.5z"/>
		<path class="st6" d="M815.9,463.9c0.1,2.6,1.7,3.7,3.7,3.7c1.4,0,2.2-0.2,3-0.5l0.4,1.4c-0.7,0.3-1.9,0.7-3.6,0.7
			c-3.3,0-5.3-2.2-5.3-5.4c0-3.2,1.9-5.7,5-5.7c3.5,0,4.4,3,4.4,5c0,0.4,0,0.7-0.1,0.9h-7.5V463.9z M821.6,462.5
			c0-1.2-0.5-3.2-2.7-3.2c-2,0-2.8,1.8-3,3.2H821.6z"/>
		<path class="st6" d="M825.9,461.7c0-1.4-0.1-2.5-0.1-3.5h1.7l0.1,1.8l0,0c0.8-1.3,2.1-2,3.8-2c2.6,0,4.5,2.2,4.5,5.4
			c0,3.8-2.3,5.7-4.9,5.7c-1.4,0-2.7-0.6-3.3-1.7l0,0v5.8h-1.9v-11.5H825.9z M827.9,464.5c0,0.3,0,0.5,0.1,0.8
			c0.4,1.4,1.5,2.3,2.9,2.3c2.1,0,3.3-1.7,3.3-4.1c0-2.1-1.1-3.9-3.2-3.9c-1.3,0-2.6,0.9-2.9,2.4c-0.1,0.2-0.1,0.5-0.1,0.8
			L827.9,464.5L827.9,464.5z"/>
	</g>
	<g>
		<path class="st6" d="M895.6,468.9V454h2.1l4.8,7.5c1.1,1.8,2,3.3,2.6,4.8h0.1c-0.2-2-0.2-3.8-0.2-6.1V454h1.8v14.9h-1.9l-4.7-7.6
			c-1-1.7-2-3.4-2.8-5h-0.1c0.1,1.9,0.1,3.7,0.1,6.1v6.4h-1.8V468.9z"/>
		<path class="st6" d="M919.8,463.4c0,4-2.7,5.7-5.3,5.7c-2.9,0-5.1-2.1-5.1-5.5c0-3.6,2.4-5.7,5.3-5.7
			C917.7,458,919.8,460.2,919.8,463.4z M911.3,463.5c0,2.3,1.3,4.1,3.2,4.1s3.3-1.8,3.3-4.2c0-1.8-0.9-4.1-3.2-4.1
			C912.4,459.4,911.3,461.5,911.3,463.5z"/>
		<path class="st6" d="M922.9,458.2l2.1,6c0.3,1,0.6,1.9,0.9,2.8h0.1c0.2-0.9,0.6-1.8,0.9-2.8l2.1-6h2l-4.2,10.7h-1.9l-4.1-10.7
			H922.9z"/>
	</g>
	<g>
		<path class="st6" d="M1007.1,461.3c0,5.1-3.1,7.9-6.9,7.9c-3.9,0-6.7-3.1-6.7-7.6c0-4.7,2.9-7.8,6.9-7.8
			C1004.5,453.7,1007.1,456.8,1007.1,461.3z M995.5,461.5c0,3.2,1.7,6.1,4.8,6.1s4.8-2.8,4.8-6.2c0-3-1.5-6.1-4.7-6.1
			C997.1,455.3,995.5,458.3,995.5,461.5z"/>
		<path class="st6" d="M1017.3,468.5c-0.5,0.2-1.6,0.6-3.1,0.6c-3.2,0-5.3-2.2-5.3-5.5s2.3-5.7,5.7-5.7c1.1,0,2.2,0.3,2.7,0.6
			l-0.5,1.5c-0.5-0.2-1.2-0.5-2.2-0.5c-2.5,0-3.8,1.8-3.8,4c0,2.5,1.6,4,3.7,4c1.1,0,1.8-0.3,2.4-0.5L1017.3,468.5z"/>
		<path class="st6" d="M1022.2,455.6v2.6h2.8v1.5h-2.8v5.8c0,1.3,0.4,2.1,1.5,2.1c0.5,0,0.8,0,1.1-0.1l0.1,1.5
			c-0.4,0.1-1,0.3-1.7,0.3c-0.9,0-1.6-0.3-2.1-0.8c-0.5-0.6-0.7-1.5-0.7-2.8v-5.9h-1.6v-1.5h1.6v-2L1022.2,455.6z"/>
	</g>
	<g>
		<path class="st6" d="M1087.9,454.2c1.2-0.2,2.6-0.3,4.1-0.3c2.8,0,4.7,0.7,6,1.9c1.3,1.2,2.1,2.9,2.1,5.3s-0.8,4.4-2.1,5.8
			c-1.4,1.4-3.7,2.1-6.6,2.1c-1.4,0-2.5-0.1-3.5-0.2V454.2z M1089.8,467.4c0.5,0,1.2,0.1,1.9,0.1c4.1,0,6.3-2.3,6.3-6.3
			c0-3.5-2-5.7-6-5.7c-1,0-1.7,0.1-2.3,0.2v11.7H1089.8z"/>
		<path class="st6" d="M1103.7,463.9c0.1,2.6,1.7,3.7,3.7,3.7c1.4,0,2.3-0.2,3-0.5l0.4,1.4c-0.7,0.3-1.9,0.7-3.6,0.7
			c-3.3,0-5.3-2.2-5.3-5.4c0-3.2,1.9-5.7,5-5.7c3.5,0,4.4,3,4.4,5c0,0.4,0,0.7-0.1,0.9h-7.5V463.9z M1109.4,462.5
			c0-1.2-0.5-3.2-2.7-3.2c-2,0-2.8,1.8-3,3.2H1109.4z"/>
		<path class="st6" d="M1121.4,468.5c-0.5,0.2-1.6,0.6-3.1,0.6c-3.2,0-5.3-2.2-5.3-5.5s2.3-5.7,5.8-5.7c1.1,0,2.2,0.3,2.7,0.6
			l-0.4,1.5c-0.5-0.2-1.2-0.5-2.2-0.5c-2.5,0-3.8,1.8-3.8,4c0,2.5,1.6,4,3.7,4c1.1,0,1.8-0.3,2.4-0.5L1121.4,468.5z"/>
	</g>
</g>
</svg>
